<?xml version="1.0" encoding="iso-8859-1"?>
<!-- Generator: Adobe Illustrator 19.0.0, SVG Export Plug-In . SVG Version: 6.00 Build 0)  -->
<svg xmlns="http://www.w3.org/2000/svg" xmlns:xlink="http://www.w3.org/1999/xlink" version="1.1" id="Capa_1" x="0px" y="0px" viewBox="0 0 512.002 512.002" style="enable-background:new 0 0 512.002 512.002;" xml:space="preserve" width="512px" height="512px">
<g>
	<g>
		<path d="M303.049,57.984c0,25.939-21.109,47.043-47.048,47.043s-47.043-21.104-47.043-47.043h-32.821    c0,44.034,35.829,79.863,79.863,79.863c44.04,0,79.863-35.829,79.869-79.863H303.049z" fill="#293f50"/>
	</g>
</g>
<g>
	<g>
		<path d="M507.921,171.324l-78.747-89.688c-22.28-25.463-54.493-40.063-88.386-40.063H171.762c-33.887,0-66.106,14.6-88.331,40.003    L4.115,171.286c-2.976,3.37-4.442,7.817-4.053,12.297c0.394,4.48,2.604,8.604,6.121,11.405l67.282,53.607    c6.094,4.852,14.753,4.753,20.732-0.23l12.242-10.202l-1.411,215.746c-0.027,4.371,1.69,8.577,4.77,11.673    c3.08,3.107,7.27,4.846,11.64,4.846h268.581c4.371,0,8.561-1.74,11.64-4.841c3.08-3.102,4.797-7.303,4.77-11.673l-1.439-220.368    l24.134,15.912c6.334,4.179,14.693,3.468,20.228-1.701l57.436-53.607C513.276,188.095,513.773,177.992,507.921,171.324z     M436.399,214.948l-38.991-25.709c-5.049-3.337-11.536-3.605-16.859-0.722c-5.322,2.888-8.621,8.473-8.583,14.529l1.532,234.563    H137.957l1.532-234.563c0.038-6.389-3.627-12.215-9.403-14.944c-5.771-2.735-12.609-1.86-17.515,2.232l-29.112,24.26    l-43.312-34.511l67.933-76.833c16.049-18.336,39.259-28.855,63.683-28.855h169.026c24.429,0,47.639,10.519,63.705,28.877    l68.261,77.746L436.399,214.948z" fill="#293f50"/>
	</g>
</g>
<g>
	<g>
		<path d="M332.577,178.873h-47.59c-9.064,0-16.41,7.346-16.41,16.41v47.59c0,5.454,2.713,10.552,7.231,13.604l23.527,15.863    c2.773,1.871,5.973,2.806,9.179,2.806c3.151,0,6.296-0.903,9.031-2.708l24.063-15.863c4.606-3.036,7.379-8.189,7.379-13.703    v-47.59C348.987,186.219,341.641,178.873,332.577,178.873z M316.172,234.033l-7.554,4.978l-7.215-4.868v-22.449h14.769V234.033z" fill="#293f50"/>
	</g>
</g>
<g>
</g>
<g>
</g>
<g>
</g>
<g>
</g>
<g>
</g>
<g>
</g>
<g>
</g>
<g>
</g>
<g>
</g>
<g>
</g>
<g>
</g>
<g>
</g>
<g>
</g>
<g>
</g>
<g>
</g>
</svg>
