<?xml version="1.0" encoding="iso-8859-1"?>
<!-- Generator: Adobe Illustrator 19.0.0, SVG Export Plug-In . SVG Version: 6.00 Build 0)  -->
<svg xmlns="http://www.w3.org/2000/svg" xmlns:xlink="http://www.w3.org/1999/xlink" version="1.1" id="Capa_1" x="0px" y="0px" viewBox="0 0 471.482 471.482" style="enable-background:new 0 0 471.482 471.482;" xml:space="preserve" width="512px" height="512px">
<g>
	<g>
		<path d="M471.304,366.417L421.128,67.921c-1.262-7.471-7.784-12.906-15.36-12.8H71.944c-7.576-0.106-14.098,5.329-15.36,12.8    L0.264,365.905c-1.557,8.339,3.941,16.361,12.28,17.918c0.003,0,0.006,0.001,0.008,0.002l159.232,32.256    c6.55,1.27,13.17-1.833,16.384-7.68l47.616-85.504l47.616,85.504c2.746,4.755,7.821,7.684,13.312,7.68h3.072l159.232-32.256    C467.125,382.269,472.553,374.579,471.304,366.417z M133.384,116.561H78.6l5.632-30.72h49.152V116.561z M307.464,116.561h-143.36    v-30.72h143.36V116.561z M338.184,116.561v-30.72h54.784l5.12,30.72H338.184z" fill="#FFDA44"/>
	</g>
</g>
<g>
</g>
<g>
</g>
<g>
</g>
<g>
</g>
<g>
</g>
<g>
</g>
<g>
</g>
<g>
</g>
<g>
</g>
<g>
</g>
<g>
</g>
<g>
</g>
<g>
</g>
<g>
</g>
<g>
</g>
</svg>
