<?xml version="1.0" encoding="iso-8859-1"?>
<!-- Generator: Adobe Illustrator 19.0.0, SVG Export Plug-In . SVG Version: 6.00 Build 0)  -->
<svg xmlns="http://www.w3.org/2000/svg" xmlns:xlink="http://www.w3.org/1999/xlink" version="1.1" id="Capa_1" x="0px" y="0px" viewBox="0 0 471.106 471.106" style="enable-background:new 0 0 471.106 471.106;" xml:space="preserve" width="512px" height="512px">
<g>
	<g>
		<path d="M292.665,0.512C291.641,0,290.617,0,289.081,0H177.465c-8.704,0-15.36,7.168-15.36,15.36c0,1.024,0,2.048,0.512,3.072    l11.776,62.464h117.76l12.288-62.464C305.977,10.24,300.857,2.048,292.665,0.512z" fill="#FFDA44"/>
	</g>
</g>
<g>
	<g>
		<path d="M339.769,366.08l-48.64-264.704H175.417L131.385,366.08c-1.024,4.608,0.512,9.728,4.096,13.312l86.528,87.04    c5.632,6.144,15.36,6.144,21.504,0.512l91.648-87.04C338.745,376.32,340.793,371.2,339.769,366.08z" fill="#FFDA44"/>
	</g>
</g>
<g>
</g>
<g>
</g>
<g>
</g>
<g>
</g>
<g>
</g>
<g>
</g>
<g>
</g>
<g>
</g>
<g>
</g>
<g>
</g>
<g>
</g>
<g>
</g>
<g>
</g>
<g>
</g>
<g>
</g>
</svg>
